<svg xmlns="http://www.w3.org/2000/svg" viewBox="0 0 64 64">
  <rect x="6" y="6" width="52" height="52" rx="10" fill="#f8fafc"/>
  <rect x="6.75" y="6.75" width="50.5" height="50.5" rx="9.25" fill="none" stroke="#d0d7de" stroke-width="1.5"/>
  <path d="M19 22v-6h6M45 22v-6h-6M19 42v6h6M45 42v6h-6" fill="none" stroke="#1f2937" stroke-width="3" stroke-linecap="round" stroke-linejoin="round" opacity=".55"/>
  <path d="M32 15a10 10 0 0 0-10 10v5h-2v8h2v5a10 10 0 0 0 20 0v-5h2v-8h-2v-5a10 10 0 0 0-10-10Zm7 28a7 7 0 0 1-14 0v-5h14v5Zm0-9H25v-9a7 7 0 0 1 14 0v9Z" fill="#1f2937"/>
  <circle cx="32" cy="30" r="3.5" fill="#ff8700"/>
</svg>
